<svg height="510pt" viewBox="0 0 510.83801 510" width="510pt" xmlns="http://www.w3.org/2000/svg"><path d="m346.460938 7.78125c-10.015626-9.863281-26.109376-9.808594-36.054688.125s-10.023438 26.03125-.167969 36.054688l-10.445312 70.597656c-6.828125 47.105468-10.1875 70.742187-45.59375 106.15625l-16.359375 16.355468c-7.671875-7.609374-19.300782-9.578124-29.054688-4.921874l-13.191406-13.175782 6.03125-6.03125c2.21875-2.144531 3.109375-5.316406 2.328125-8.300781s-3.113281-5.3125-6.09375-6.09375c-2.984375-.78125-6.15625.109375-8.300781 2.328125l-24.132813 24.128906c-2.152343 2.160156-2.996093 5.300782-2.203125 8.246094.789063 2.945312 3.089844 5.246094 6.035156 6.035156 2.945313.785156 6.089844-.054687 8.242188-2.214844l6.035156-6.03125 13.183594 13.183594c-4.660156 9.753906-2.691406 21.378906 4.914062 29.054688l-12.074218 12.066406c-7.773438-7.390625-19.257813-9.308594-29.011719-4.847656l-13.253906-13.25 6.042969-6.035156c3.160156-3.351563 3.085937-8.609376-.167969-11.871094-3.253907-3.265625-8.507813-3.355469-11.875-.210938l-12.0625 12.058594-12.078125 12.089844c-2.214844 2.144531-3.105469 5.316406-2.324219 8.300781s3.109375 5.3125 6.09375 6.09375 6.15625-.109375 8.296875-2.328125l6.035156-6.03125 13.167969 13.167969c-4.757813 9.746093-2.769531 21.441406 4.9375 29.070312l-12.074219 12.058594c-7.769531-7.394531-19.261718-9.316406-29.011718-4.847656l-13.21875-13.242188 6.023437-6.035156c2.222656-2.140625 3.113281-5.3125 2.332031-8.296875-.777344-2.984375-3.105468-5.3125-6.089844-6.097656-2.980468-.78125-6.15625.105468-8.296874 2.320312l-12.066407 12.066406-12.078125 12.074219c-2.269531 2.132813-3.195312 5.332031-2.421875 8.347657.777344 3.011718 3.132813 5.367187 6.148438 6.140624 3.015625.773438 6.210937-.160156 8.339843-2.429687l6.042969-6.03125 13.160157 13.164063c-4.753907 9.746093-2.765626 21.4375 4.9375 29.066406l-6.039063 6.039062-78.421875 78.414063-6.035156-6.03125c-3.339844-3.339844-8.753906-3.335938-12.089844.007812-3.335938 3.339844-3.332031 8.753907.007812 12.089844l48.273438 48.273437c2.144531 2.21875 5.316406 3.109376 8.300781 2.328126 2.980469-.78125 5.3125-3.109376 6.09375-6.09375.78125-2.984376-.109375-6.15625-2.328125-8.300782l-6.03125-6.03125 36.691406-36.695312c1.675782 2.316406 3.519532 4.507812 5.511719 6.554687l24.140625 24.132813c11.203125 11.203125 26.398438 17.496094 42.242188 17.496094s31.035156-6.292969 42.238281-17.496094l6.042969-6.035156c9.996094 9.996093 26.199218 9.996093 36.199218 0 9.992188-9.996094 9.992188-26.199219 0-36.195313l12.097657-12.101563c4.800781 4.800782 11.3125 7.5 18.105469 7.5 6.789062 0 13.300781-2.699218 18.101562-7.5 4.804688-4.800781 7.5-11.3125 7.5-18.101562 0-6.792969-2.695312-13.304688-7.5-18.105469l12.066406-12.066406c4.800782 4.800781 11.3125 7.5 18.105469 7.5 6.789063 0 13.300781-2.699219 18.101563-7.5 4.800781-4.800781 7.5-11.3125 7.5-18.101563 0-6.792968-2.699219-13.304687-7.5-18.105468l6.035156-6.03125c23.292968-23.34375 23.292968-61.136719 0-84.480469l-27.265625-27.308594c19.558593-13.003906 32.8125-14.003906 53.230469-15.410156 9.105468-.632813 19.429687-1.339844 32.035156-3.21875l56.667968-8.386719c9.996094 9.976563 26.179688 9.976563 36.175782 0 4.800781-4.800781 7.5-11.3125 7.5-18.101562 0-6.792969-2.699219-13.304688-7.5-18.105469zm-120.695313 289.628906-12.066406 12.074219-12.074219-12.074219 12.074219-12.066406zm0 24.140625 12.066406-12.074219 36.207031 36.207032-12.058593 12.074218zm-60.339844 12.058594 12.074219 12.074219-12.074219 12.074218-12.074219-12.074218zm12.074219 36.214844 12.066406-12.074219 36.207032 36.207031-12.066407 12.066407zm-144.824219 96.539062 48.894531-48.886719c-.035156 7.003907 1.183594 13.960938 3.601563 20.539063l-40.421875 40.421875zm162.917969 6.03125c-16.664062 16.664063-43.679688 16.664063-60.339844 0l-24.132812-24.121093c-3.445313-3.441407-6.257813-7.457032-8.3125-11.871094-7.8125-16.269532-4.492188-35.703125 8.285156-48.453125l6.058594-6.058594 12.066406 12.066406c-13.300781 13.34375-13.300781 34.929688 0 48.273438l12.074219 12.066406c6.394531 6.414063 15.078125 10.019531 24.132812 10.019531 9.058594 0 17.742188-3.605468 24.132813-10.019531l12.066406 12.066406zm-54.308594-66.371093 36.214844 36.207031c-6.742188 6.46875-17.386719 6.46875-24.128906 0l-12.078125-12.066407c-3.203125-3.199218-5.003907-7.539062-5.003907-12.070312 0-4.527344 1.796876-8.867188 4.996094-12.070312zm96.546875 60.339843c-3.332031 3.332031-8.734375 3.332031-12.066406 0l-30.164063-30.167969-78.4375-78.4375c-2.21875-2.140624-3.109374-5.3125-2.328124-8.296874.78125-2.984376 3.109374-5.3125 6.09375-6.09375 2.984374-.78125 6.15625.105468 8.300781 2.324218l108.601562 108.613282c3.324219 3.332031 3.324219 8.726562 0 12.058593zm0-36.199219-12.066406-12.074218 12.066406-12.074219 12.066407 12.074219zm48.273438-12.074218c-3.371094 3.226562-8.6875 3.226562-12.058594 0l-108.621094-108.613282c-3.332031-3.332031-3.328125-8.738281.003907-12.070312 3.335937-3.332031 8.738281-3.328125 12.070312.003906l78.441406 78.4375 30.164063 30.160156c1.605469 1.597657 2.507812 3.773438 2.507812 6.039063 0 2.269531-.902343 4.441406-2.507812 6.042969zm0-36.207032-12.066407-12.066406 12.066407-12.074218 12.066406 12.074218zm48.273437-12.066406c-3.332031 3.332032-8.734375 3.332032-12.066406 0l-108.613281-108.605468c-3.335938-3.332032-3.339844-8.734376-.007813-12.074219 3.332032-3.335938 8.738282-3.339844 12.074219-.007813l6.023437 6.023438 24.125 24.117187 72.40625 72.398438 6.03125 6.03125c1.621094 1.597656 2.539063 3.78125 2.542969 6.058593.003907 2.277344-.902343 4.460938-2.515625 6.066407zm-24.132812-60.347656-36.207032-36.191406 12.066407-12.066406 24.132812 24.132812c6.664063 6.664062 6.667969 17.464844.007813 24.132812zm30.164062 18.109375-6.03125 6.03125-12.066406-12.058594c13.300781-13.339843 13.300781-34.929687 0-48.273437l-23.894531-23.832032c4.214843-3.878906 8.539062-7.605468 12.972656-11.179687l29.011719 29.015625c16.613281 16.667969 16.617187 43.632812.007812 60.304688zm67.566406-135.1875c-11.945312 1.777344-21.910156 2.457031-30.71875 3.074219-24.257812 1.707031-41.8125 2.882812-69.734374 24.027344-9.355469 7.027343-18.226563 14.667968-26.5625 22.878906-.164063.136718-.308594.296875-.46875.433594-.164063.136718-.300782.164062-.429688.292968l-18.082031 18.105469-12.074219-12.074219 16.101562-16.101562.25-.238282c39.421876-39.425781 43.5625-68.164062 50.421876-115.789062l8.535156-58.027344 126.90625 126.890625zm83.277344-3.601563c-3.332031 3.332032-8.734375 3.332032-12.066406 0l-156.875-156.875c-3.234375-3.347656-3.1875-8.671874.105469-11.960937 3.289062-3.292969 8.613281-3.339844 11.960937-.105469l156.875 156.886719c3.332032 3.332031 3.332032 8.730469 0 12.0625zm0 0"/></svg>